<?xml version="1.0" encoding="utf-8"?>
<!-- Generator: Adobe Illustrator 28.3.0, SVG Export Plug-In . SVG Version: 6.00 Build 0)  -->
<svg version="1.1" id="Capa_1" xmlns="http://www.w3.org/2000/svg" xmlns:xlink="http://www.w3.org/1999/xlink" x="0px" y="0px"
	 viewBox="0 0 85 28.3" style="enable-background:new 0 0 85 28.3;" xml:space="preserve">
<g>
	<path d="M50.6,19.3c-4.7,2-9.8,3-14.4,3c-6.9,0-13.5-1.9-18.9-5c-0.5-0.3-0.8,0.2-0.4,0.6c5,4.5,11.6,7.2,18.9,7.2
		c5.2,0,11.3-1.6,15.5-4.7C51.9,19.8,51.3,19,50.6,19.3z"/>
	<path d="M48,17.6c-0.4,0.3-0.3,0.6,0.1,0.6c1.3-0.2,4.3-0.5,4.9,0.2c0.5,0.7-0.6,3.5-1.1,4.8c-0.2,0.4,0.2,0.5,0.5,0.3
		c2.2-1.9,2.8-5.8,2.4-6.4C54.3,16.4,50.4,15.9,48,17.6z"/>
	<path d="M19.2,15.9h2.2c0.3,0,0.4-0.2,0.5-0.4V9.4c0-1.3-0.1-3.2,1.5-3.2c1.6,0,1.4,1.9,1.4,3.2v6.1c0,0.2,0.2,0.4,0.4,0.4h2.2
		c0.2,0,0.4-0.2,0.4-0.4V9.4c0-0.7,0-1.6,0.2-2.2c0.2-0.6,0.8-0.9,1.3-0.9c0.7,0,1.1,0.2,1.3,1c0.1,0.5,0.1,1.7,0.1,2.1v6.1
		c0,0.2,0.2,0.4,0.4,0.4h2.2c0.2,0,0.4-0.2,0.4-0.4V8.3c0-1.2,0.2-2.6-0.6-3.6c-0.6-0.9-1.6-1.3-2.6-1.3c-1.3,0-2.6,0.7-3.1,2.1
		c-0.6-1.4-1.5-2.1-2.9-2.1c-1.4,0-2.4,0.7-2.9,2.1h-0.1V4.1c0-0.2-0.2-0.4-0.4-0.4h-2.1c-0.2,0-0.4,0.2-0.4,0.4v11.4
		C18.8,15.7,19,15.9,19.2,15.9z"/>
	<path d="M42.3,8.2c-1.3,0.2-3,0.3-4.2,0.8c-1.4,0.6-2.4,1.8-2.4,3.6c0,2.3,1.5,3.5,3.3,3.5c1.6,0,2.5-0.4,3.7-1.6
		c0.4,0.6,0.6,0.9,1.3,1.5c0.2,0.1,0.4,0.1,0.5-0.1c0.5-0.4,1.3-1.1,1.7-1.5c0.2-0.1,0.2-0.4,0-0.6c-0.4-0.6-0.8-1-0.8-2.1V8.3
		c0-1.5,0.1-2.8-1-3.8c-0.9-0.8-2.3-1.1-3.4-1.1c-2.1,0-4.5,0.8-5,3.4c-0.1,0.3,0.2,0.4,0.3,0.5l2.1,0.2c0.2,0,0.3-0.2,0.4-0.4
		c0.2-0.9,0.9-1.3,1.8-1.3c0.5,0,1,0.2,1.2,0.6c0.3,0.5,0.3,1.1,0.3,1.6V8.2z M42.3,10.4c0,0.9,0,1.6-0.4,2.4c-0.4,0.6-0.9,1-1.5,1
		c-0.9,0-1.4-0.7-1.4-1.6c0-1.9,1.7-2.2,3.3-2.2V10.4z"/>
	<path d="M62.6,3.4c-3.2,0-5,2.8-5,6.3c0,3.5,1.8,6.4,5,6.4c3.1,0,5.1-2.8,5.1-6.3C67.7,6.3,65.9,3.4,62.6,3.4z M62.6,13.8
		c-1.7,0-1.7-3-1.7-4.4c0-1.4,0.1-3.6,1.7-3.6c0.7,0,1.2,0.3,1.5,1.1c0.3,0.9,0.3,2.1,0.3,3C64.4,11.4,64.3,13.8,62.6,13.8z"/>
	<path d="M77.9,4.8c-0.6-1-1.6-1.3-2.6-1.3c-1.5,0-2.4,0.7-3,2.3h-0.1V4c-0.1-0.2-0.2-0.3-0.4-0.3h-2.1c-0.2,0-0.4,0.2-0.4,0.4v11.4
		c0,0.2,0.2,0.4,0.4,0.4H72c0.2,0,0.4-0.2,0.5-0.4V9.3c0-0.8,0.1-1.5,0.4-2.2c0.3-0.6,0.8-0.9,1.3-0.9c1.5,0,1.4,1.8,1.4,3.1v6.2
		c0,0.2,0.2,0.3,0.4,0.4h2.2c0.2,0,0.4-0.2,0.4-0.4V8.3C78.5,7.2,78.5,5.7,77.9,4.8z"/>
	<path d="M56.1,12.8c-1.3-0.7-2.8-0.9-4.2-0.9l3.8-5.4c0.4-0.5,0.6-0.8,0.6-1V4.1c0-0.2-0.2-0.4-0.4-0.4h-7.3
		c-0.2,0-0.4,0.2-0.4,0.4v1.6c0,0.2,0.2,0.4,0.4,0.4h3.8L48,12.4c-0.3,0.4-0.3,0.9-0.3,1.1v1.7c0,0.3,0.3,0.5,0.5,0.4
		c2.5-1.3,5.5-1.2,7.7,0c0.3,0.2,0.5-0.1,0.5-0.4v-1.7C56.5,13.2,56.4,12.9,56.1,12.8z"/>
	<path d="M17.1,13.8c-0.4-0.6-0.8-1-0.8-2.1V8.3c0-1.5,0.1-2.8-1-3.8c-0.9-0.8-2.3-1.1-3.4-1.1c-2.1,0-4.5,0.8-5,3.4
		C6.9,7,7.1,7.2,7.3,7.2l2.1,0.2c0.2,0,0.3-0.2,0.4-0.4c0.2-0.9,0.9-1.3,1.8-1.3c0.5,0,1,0.2,1.2,0.6c0.3,0.5,0.3,1.1,0.3,1.6v0.3
		c-1.3,0.2-3,0.3-4.2,0.8c-1.4,0.6-2.4,1.8-2.4,3.6C6.5,14.9,8,16,9.9,16c1.6,0,2.5-0.4,3.7-1.6c0.4,0.6,0.6,0.9,1.3,1.5
		c0.2,0.1,0.4,0.1,0.5-0.1c0.5-0.4,1.3-1.1,1.7-1.5C17.3,14.3,17.2,14,17.1,13.8z M13.1,10.4c0,0.9,0,1.6-0.4,2.4
		c-0.4,0.6-0.9,1-1.5,1c-0.9,0-1.4-0.7-1.4-1.6c0-1.9,1.7-2.2,3.3-2.2V10.4z"/>
</g>
</svg>
