<?xml version="1.0" encoding="utf-8"?>
<!-- Generator: Adobe Illustrator 28.3.0, SVG Export Plug-In . SVG Version: 6.00 Build 0)  -->
<svg version="1.1" id="Capa_1" xmlns="http://www.w3.org/2000/svg" xmlns:xlink="http://www.w3.org/1999/xlink" x="0px" y="0px"
	 viewBox="0 0 85 28.3" style="enable-background:new 0 0 85 28.3;" xml:space="preserve">
<g>
	<path d="M15.7,10.7v2.5c2,0,4,0,6,0c-0.1,1.2-0.6,2.5-1.6,3.3c-1.2,1.2-3,1.7-4.7,1.6c-1.8-0.1-3.6-0.9-4.7-2.3
		c-1.2-1.4-1.7-3.4-1.5-5.2C9.5,8.8,10.6,7,12.2,6c1.4-1,3.3-1.3,5-0.9c1.2,0.2,2.2,0.8,3.1,1.6C20.8,6.1,21.4,5.5,22,5
		c-1.6-1.6-3.8-2.5-6-2.5h-0.6c-1.8,0.1-3.6,0.7-5,1.8C8.8,5.3,7.6,6.9,7,8.6c-0.7,1.9-0.7,4.1,0.1,6c0.8,2.1,2.3,3.9,4.3,4.9
		c1.6,0.9,3.6,1.2,5.4,1.1c1.9-0.2,3.8-1,5.1-2.3c2-1.9,2.7-4.9,2.2-7.6H15.7z"/>
	<path d="M63.8,20.3c0.9,0,1.7,0,2.6,0V3.1h-2.6C63.8,8.8,63.8,14.6,63.8,20.3z"/>
	<path d="M34.5,10c-1.3-1-3-1.3-4.6-1c-2,0.3-3.8,1.8-4.4,3.8c-0.6,1.8-0.4,3.9,0.8,5.5c1,1.4,2.7,2.3,4.4,2.4
		c1.9,0.1,3.8-0.7,5-2.2c1.1-1.3,1.5-3.2,1.2-4.8C36.6,12.2,35.7,10.9,34.5,10z M33.9,16.6c-0.5,0.8-1.3,1.5-2.2,1.7
		c-1,0.2-2.1-0.1-2.9-0.9c-1.3-1.3-1.4-3.6-0.2-5c0.4-0.5,1-0.9,1.7-1.1c1-0.3,2.2,0,3,0.8C34.5,13.2,34.7,15.2,33.9,16.6z"/>
	<path d="M42.7,9c-2,0.3-3.7,1.8-4.4,3.7c-0.7,1.8-0.4,4,0.8,5.6c1,1.4,2.8,2.3,4.5,2.4c1.8,0.1,3.7-0.7,4.8-2.2
		c1.9-2.3,1.7-6-0.6-8C46.5,9.2,44.5,8.7,42.7,9z M46.7,16.6c-0.5,0.8-1.3,1.5-2.2,1.7c-1.1,0.2-2.2-0.2-2.9-1
		c-1.2-1.3-1.3-3.6-0.1-4.9c0.4-0.5,1-0.9,1.7-1.1c1-0.3,2.2,0,3,0.7C47.3,13.2,47.5,15.2,46.7,16.6z"/>
	<path d="M59.5,10.3c-0.4-0.4-0.8-0.7-1.2-0.9c-1.5-0.7-3.3-0.5-4.7,0.4c-1.7,1-2.8,2.9-2.8,4.9c-0.1,1.7,0.7,3.5,2,4.6
		c1.3,1.1,3.1,1.7,4.8,1.2c0.8-0.2,1.4-0.7,2-1.2c0,1.1,0,2.4-0.7,3.3c-0.7,0.9-1.9,1.2-3,1c-1.1-0.2-1.9-1-2.4-2
		c-0.7,0.3-1.5,0.6-2.2,1c0.7,1.7,2.4,3.1,4.2,3.4c1.8,0.3,3.7-0.1,5-1.4c1.2-1.2,1.6-2.9,1.6-4.5V9.3c-0.8,0-1.6,0-2.4,0
		C59.5,9.6,59.5,10,59.5,10.3z M59.2,16.8c-0.5,0.8-1.4,1.4-2.3,1.5c-1,0.1-2.1-0.3-2.7-1.1c-1.1-1.3-1.1-3.5,0-4.8
		c0.5-0.6,1.2-1,1.9-1.1c1-0.2,2.1,0.2,2.7,1C59.9,13.5,60,15.4,59.2,16.8z"/>
	<path d="M75.5,17.7c-0.9,0.7-2.1,0.8-3.2,0.5c-0.7-0.3-1.3-0.9-1.7-1.6c2.6-1.1,5.2-2.2,7.9-3.2c-0.6-1.7-1.7-3.4-3.5-4.1
		C73.2,8.5,71,9,69.5,10.4c-2.3,2.1-2.5,6-0.4,8.3c1.2,1.5,3.2,2.2,5.1,2c1.7-0.2,3.3-1.1,4.2-2.6c-0.7-0.4-1.3-0.9-2-1.3
		C76.2,17.1,75.9,17.4,75.5,17.7z M70.8,12.6c0.6-0.9,1.8-1.6,3-1.4c0.7,0.1,1.4,0.5,1.7,1.2c-1.8,0.7-3.5,1.5-5.3,2.2
		C70.2,13.9,70.4,13.2,70.8,12.6z"/>
</g>
</svg>
