<?xml version="1.0" encoding="utf-8"?>
<!-- Generator: Adobe Illustrator 28.3.0, SVG Export Plug-In . SVG Version: 6.00 Build 0)  -->
<svg version="1.1" id="Capa_1" xmlns="http://www.w3.org/2000/svg" xmlns:xlink="http://www.w3.org/1999/xlink" x="0px" y="0px"
	 viewBox="0 0 1581.7 283.5" style="enable-background:new 0 0 1581.7 283.5;" xml:space="preserve">
<style type="text/css">
	.st0{fill:#FFFFFF;}
</style>
<path class="st0" d="M369.1,84.6l-37.8,116H357l9.1-28.8h47.8l9.3,28.8h26.6l-39.2-116L369.1,84.6L369.1,84.6z M372.9,150.2l14-44.3
	h5.7l14.3,44.3H372.9z M453.1,84.6v18.7h10.2v97.2h25.2v-97.2V84.6h-25.2H453.1z M593.8,123.4c-3.3-4-7.4-7-12.1-9.2
	c-4.8-2.2-10.1-3.3-15.9-3.3c-6.7,0-12.6,1.5-17.9,4.5c-4.7,2.7-8.4,6.6-11.3,11.6V84.6h-25.1v116h19.9v-19c0.6,1.5,1.2,2.9,1.9,4.2
	c3,5.7,7.2,10.1,12.5,13.1c5.3,3,11.5,4.5,18.5,4.5c6.2,0,11.7-1.1,16.6-3.4c4.9-2.3,9.1-5.5,12.6-9.5c3.5-4.1,6.2-8.8,8-14.2
	c1.8-5.4,2.7-11.3,2.7-17.6v-3.5c0-6.4-0.9-12.2-2.7-17.6C599.9,132.1,597.2,127.4,593.8,123.4z M576.4,170c-1.8,3.9-4.3,6.9-7.4,9
	c-3.2,2.1-6.9,3.2-11.2,3.2c-3.5,0-7-0.9-10.3-2.5c-3.3-1.7-6.1-4.2-8.2-7.4c-2.1-3.2-3.2-7.1-3.2-11.7v-5.9c0-4.8,1-8.8,3.1-12.2
	c2-3.3,4.7-5.9,8.1-7.7c3.3-1.8,6.9-2.7,10.7-2.7c4.3,0,8,1,11.2,3.1c3.2,2.1,5.7,5,7.4,8.7c1.8,3.7,2.7,8,2.7,13
	C579.1,161.7,578.2,166.1,576.4,170z M683.5,116.7c-6.3-4.2-14.1-6.3-23.3-6.3c-7,0-13.2,1.3-18.7,3.7c-5.5,2.5-10.1,5.9-13.7,10.1
	c-3.7,4.2-6.4,9-8.4,14.4c-2,5.4-2.9,10.9-2.9,16.8v3.2c0,5.6,1,11.1,2.9,16.4c1.9,5.3,4.8,10.2,8.5,14.5s8.4,7.7,14,10.2
	c5.6,2.5,12,3.8,19.3,3.8c7.2,0,13.6-1.3,19.1-3.8c5.5-2.5,10.1-6.1,13.8-10.6c3.7-4.6,6.1-9.7,7.4-15.6h-23c-1,2.6-3,4.9-6,6.7
	c-2.9,1.8-6.7,2.7-11.3,2.7c-5,0-9.1-1.1-12.2-3.2s-5.4-5.1-6.9-9c-0.8-2.1-1.4-4.5-1.7-7.1h62.7V155c0-7.9-1.7-15.3-5-22
	C694.6,126.4,689.8,120.9,683.5,116.7z M640.5,149.2c0.4-2.3,1-4.4,1.7-6.3c1.6-3.9,3.9-6.8,6.9-8.8c3-2,6.7-3,11.1-3
	c4.3,0,7.9,1,10.7,2.9c2.9,2,5,4.8,6.5,8.5c0.8,2,1.3,4.2,1.7,6.7L640.5,149.2L640.5,149.2z M746.8,122.4c-3.9,5-6.3,11.7-7.3,19.9
	v-28.8h-19.9v87.1h25.1v-44.3c0-7.1,1.9-12.5,5.6-16.3c3.8-3.8,9.1-5.6,16-5.6h6.3v-21.9h-3.3C759.4,112.4,751.9,115.7,746.8,122.4z
	 M813.6,90h-23.4v23.5h-13v18.6h13v34.5c0,8.8,1.2,15.8,3.7,20.9s6.3,8.8,11.7,11c5.3,2.2,12.3,3.3,21,3.3h12.1v-21.5H826
	c-4,0-7-1.1-9.2-3.3s-3.2-5.3-3.2-9.4v-35.4h25.1v-18.6h-25.1L813.6,90L813.6,90z M931.7,123.8c-4.1-4.1-9-7.4-14.8-9.8
	c-5.8-2.4-12.4-3.6-19.8-3.6c-7.2,0-13.7,1.2-19.6,3.6c-5.9,2.4-10.8,5.6-15,9.8c-4.2,4.2-7.3,8.9-9.4,14.4s-3.2,11.2-3.2,17.2v3.7
	c0,5.9,1,11.6,3.1,16.9c2.1,5.3,5.1,10.1,9.2,14.2c4.1,4.1,9,7.4,14.8,9.8c5.9,2.4,12.5,3.6,20.1,3.6c7.6,0,14.4-1.2,20.2-3.6
	c5.9-2.4,10.8-5.6,14.8-9.8c4-4.1,7.1-8.9,9.2-14.2c2.1-5.3,3.1-11,3.1-16.9v-3.7c0-6-1.1-11.8-3.3-17.2
	C938.9,132.7,935.8,127.9,931.7,123.8z M916.8,170c-1.7,3.8-4.2,6.8-7.4,8.9c-3.2,2.1-7.3,3.2-12.2,3.2c-4.7,0-8.7-1.1-12.1-3.2
	c-3.3-2.1-5.9-5.1-7.5-8.9c-1.6-3.8-2.5-8-2.5-12.7c0-5,0.9-9.3,2.6-13.1c1.7-3.8,4.3-6.8,7.6-9c3.3-2.2,7.3-3.3,11.9-3.3
	c4.7,0,8.7,1.1,12,3.3c3.3,2.2,5.8,5.2,7.6,9c1.8,3.8,2.7,8.1,2.7,13.1C919.4,162,918.5,166.2,916.8,170z M1062.7,136.3
	c-6.4-2.9-13.7-4.7-22.1-5.5l-8.8-0.8c-5.2-0.4-9-1.9-11.3-4.3c-2.3-2.4-3.4-5.3-3.4-8.6c0-2.5,0.6-4.9,1.9-7.1s3.2-3.9,5.7-5.2
	c2.6-1.3,5.7-1.9,9.5-1.9c4,0,7.3,0.7,9.9,2.2c2.7,1.5,4.7,3.4,6,5.8c1.4,2.4,2,5,2,7.9h25.1c0-7.6-1.7-14.3-5.2-19.9
	c-3.4-5.7-8.4-10.1-14.8-13.2s-14.1-4.7-23.1-4.7c-8.6,0-16,1.5-22.2,4.4c-6.3,2.9-11.1,7.1-14.6,12.5c-3.5,5.4-5.2,11.8-5.2,19.2
	c0,10.3,3.4,18.5,10.2,24.8c6.8,6.3,15.9,9.8,27.3,10.8l8.6,0.8c7,0.6,12.1,2,15.2,4.2c3.1,2.2,4.7,5.1,4.7,8.8c0,3-0.8,5.6-2.5,7.9
	c-1.7,2.3-4.1,4-7.4,5.3c-3.2,1.3-7.3,1.9-12.1,1.9c-5.3,0-9.7-0.8-13-2.3c-3.3-1.5-5.8-3.6-7.4-6.1c-1.6-2.5-2.4-5.3-2.4-8.3h-24.9
	c0,7.5,1.8,14.2,5.5,19.9c3.7,5.8,9,10.3,16.1,13.7c7.1,3.3,15.8,5,26.2,5c9.7,0,18.1-1.5,25.1-4.6c7-3.1,12.4-7.4,16.2-12.9
	c3.8-5.6,5.7-12,5.7-19.5c0-7.2-1.8-13.3-5.4-18.3C1074.1,143.2,1069.1,139.2,1062.7,136.3z M1152.7,115.9c-6-2.5-13.4-3.8-22.2-3.8
	c-3,0-6.3,0.1-9.7,0.2c-3.4,0.1-6.8,0.3-10,0.5s-6.1,0.4-8.5,0.6v21.4c3.2-0.2,6.8-0.4,10.8-0.6c4-0.2,7.8-0.4,11.6-0.5
	c3.8-0.1,6.8-0.2,9.1-0.2c4.6,0,7.9,1.1,10,3.3c2.1,2.2,3.1,5.6,3.1,10v0.3h-15.5c-7.6,0-14.4,1-20.2,2.9c-5.9,2-10.4,5-13.6,9
	c-3.2,4.1-4.9,9.3-4.9,15.6c0,5.8,1.3,10.8,3.9,15s6.2,7.4,10.9,9.6c4.7,2.2,10,3.3,16.2,3.3c6,0,11-1.1,15.1-3.3s7.4-5.4,9.7-9.5
	c1.1-1.9,1.9-3.9,2.6-6.2v16.8h19.9v-53.4c0-8-1.6-14.6-4.7-19.8C1163.3,122.2,1158.8,118.4,1152.7,115.9z M1147,168.3
	c-0.2,4.3-1,7.7-2.5,10.2c-1.5,2.4-3.3,4.2-5.6,5.2c-2.2,1-4.8,1.5-7.6,1.5c-4.4,0-7.8-1.1-10.1-3.3c-2.3-2.2-3.5-5-3.5-8.5
	c0-3.7,1.2-6.7,3.5-8.8c2.3-2.2,5.7-3.3,10.1-3.3h15.7V168.3z M1242.4,110.8h-1.1c-6.6,0-12.2,1.5-16.8,4.4c-4.6,3-8,7.4-10.3,13.3
	c-0.8,2.1-1.4,4.4-2,6.9v-22h-19.9v87.1h25.1v-50.7c0-4.9,1.4-8.8,4.3-11.8c2.9-3,6.7-4.5,11.4-4.5c4.6,0,8.2,1.5,11,4.4
	c2.7,3,4.1,6.8,4.1,11.4v51.2h25.1v-49.7c0-13.4-2.6-23.5-7.9-30.1C1260.1,114.1,1252.5,110.8,1242.4,110.8z M1347.4,174.9
	c-1.4,2.2-3.3,3.9-5.6,5.1c-2.3,1.2-5.2,1.8-8.5,1.8c-4.5,0-8.1-1-10.9-3.1s-4.8-5-6-8.7c-1.3-3.8-1.9-8-1.9-12.6
	c0-5.1,0.7-9.5,2-13.2c1.4-3.7,3.4-6.6,6.2-8.7c2.8-2.1,6.2-3.2,10.4-3.2c5,0,8.9,1.4,11.5,4c2.7,2.7,4.2,6,4.6,9.9h24.6
	c-0.4-7-2.4-13.2-6-18.6c-3.5-5.4-8.3-9.6-14.3-12.6s-12.8-4.5-20.5-4.5c-7.1,0-13.4,1.2-18.9,3.7c-5.5,2.5-10.1,5.8-13.7,10
	c-3.7,4.2-6.4,9.1-8.3,14.5c-1.9,5.5-2.8,11.2-2.8,17.1v3c0,5.7,0.9,11.3,2.7,16.6c1.8,5.3,4.5,10.1,8.1,14.4
	c3.6,4.3,8.2,7.6,13.7,10.1c5.5,2.5,11.9,3.7,19.3,3.7c7.7,0,14.6-1.5,20.7-4.5c6.1-3,10.9-7.3,14.6-12.7c3.7-5.5,5.6-11.8,6-19
	H1350C1349.6,170.2,1348.8,172.7,1347.4,174.9z M1441.9,110.8h-1.1c-6.5,0-11.9,1.6-16.1,4.7c-4,2.9-7.1,7.1-9.2,12.6V84.6h-25.1
	v116h25.1v-49.1v-1.1c0-5.1,1.4-9.2,4.3-12.2c2.9-3.1,6.7-4.6,11.4-4.6c4.5,0,8.1,1.5,10.9,4.4c2.8,2.9,4.2,6.8,4.2,11.5v51.2h25.1
	V151c0-13.1-2.5-23.1-7.5-29.9C1458.7,114.2,1451.4,110.8,1441.9,110.8z M1578.4,138.2c-2.2-5.5-5.3-10.2-9.4-14.4s-9-7.4-14.8-9.8
	c-5.8-2.4-12.4-3.6-19.8-3.6c-7.2,0-13.7,1.2-19.6,3.6c-5.9,2.4-10.8,5.6-15,9.8s-7.3,8.9-9.4,14.4c-2.1,5.5-3.2,11.2-3.2,17.2v3.7
	c0,5.9,1,11.6,3.1,16.9c2.1,5.3,5.1,10.1,9.2,14.2c4,4.1,9,7.4,14.8,9.8c5.9,2.4,12.5,3.6,20.1,3.6c7.6,0,14.4-1.2,20.2-3.6
	c5.9-2.4,10.8-5.6,14.8-9.8c4-4.1,7.1-8.9,9.2-14.2c2.1-5.3,3.1-11,3.1-16.9v-3.7C1581.7,149.4,1580.6,143.6,1578.4,138.2z
	 M1554,170c-1.7,3.8-4.2,6.8-7.4,8.9c-3.2,2.1-7.3,3.2-12.2,3.2c-4.7,0-8.7-1.1-12.1-3.2c-3.3-2.1-5.9-5.1-7.5-8.9
	c-1.7-3.8-2.5-8-2.5-12.7c0-5,0.9-9.3,2.6-13.1s4.3-6.8,7.6-9c3.3-2.2,7.3-3.3,11.9-3.3c4.7,0,8.7,1.1,12,3.3c3.3,2.2,5.8,5.2,7.6,9
	c1.8,3.8,2.7,8.1,2.7,13.1C1556.6,162,1555.7,166.2,1554,170z M109.3,283.5H17.4c-9.6,0-17.4-7.6-17.4-17.1V17.1C0,7.6,7.8,0,17.4,0
	h91.9C79,40.6,62.5,89.9,62.5,141.7C62.5,193.6,79,242.9,109.3,283.5z M271.5,0H149.2c-75,79-75,204.5,0,283.5h122.3
	c9.6,0,17.4-7.6,17.4-17.1V17.1C288.9,7.6,281.1,0,271.5,0z M170.2,267.8c-68.6-69.5-68.6-182.7,0-252.2l21.4,21.7
	c-56.8,57.5-56.8,151.2,0,208.7L170.2,267.8z M231.3,205.9l-21.4,21.7c-46.7-47.4-46.7-124.4,0-171.8l21.4,21.7
	C196.4,113,196.4,170.5,231.3,205.9z"/>
</svg>
