<?xml version="1.0" encoding="utf-8"?>
<!-- Generator: Adobe Illustrator 28.3.0, SVG Export Plug-In . SVG Version: 6.00 Build 0)  -->
<svg version="1.1" id="Capa_1" xmlns="http://www.w3.org/2000/svg" xmlns:xlink="http://www.w3.org/1999/xlink" x="0px" y="0px"
	 viewBox="0 0 85 28.3" style="enable-background:new 0 0 85 28.3;" xml:space="preserve">
<path d="M13.9,12.5c0,1.6-0.8,2.7-2.8,2.7h-0.6V10c0.2,0,0.4,0,0.6,0C13,10,13.9,10.9,13.9,12.5z M11.8,17.5c3.6,0,5.9-1.9,5.9-5.1
	c0-3.5-2.4-4.8-6.4-4.8c-1.5,0-3.4,0.1-4.7,0.3v12.6h3.9v-3H11.8z M63.6,12.5c0,1.6-0.8,2.7-2.8,2.7h-0.6V10c0.2,0,0.4,0,0.6,0
	C62.7,10,63.6,10.9,63.6,12.5z M61.5,17.5c3.6,0,5.9-1.9,5.9-5.1c0-3.5-2.4-4.8-6.4-4.8c-1.5,0-3.4,0.1-4.7,0.3v12.6h3.9v-3H61.5z
	 M72.4,11.1c0-0.7,0.7-1,1.8-1c1.2,0,2.5,0.3,3.4,0.6L77.3,8c-1-0.2-1.9-0.4-3.5-0.4c-3.1,0-5.2,1.2-5.2,3.8c0,4.4,6,3.5,6,5.6
	c0,0.8-0.6,1.2-2,1.2c-1.3,0-3.2-0.4-4.4-1l0.4,2.9c1.2,0.4,2.8,0.6,4,0.6c3.2,0,5.9-1.1,5.9-4.2C78.5,12.3,72.4,13.1,72.4,11.1z
	 M53.3,7.9h-3.9v12.6h3.9V7.9z M37.7,7.9h-3.9v12.6h3.9V7.9z M44.4,18V7.9h-3.9v12.6h7l0.6-2.5H44.4z M31,7.9h-3.9v5h-4v-5h-3.9
	v12.6h3.9v-5h4v5H31L31,7.9z"/>
</svg>
