<?xml version="1.0" encoding="utf-8"?>
<!-- Generator: Adobe Illustrator 28.3.0, SVG Export Plug-In . SVG Version: 6.00 Build 0)  -->
<svg version="1.1" id="Capa_1" xmlns="http://www.w3.org/2000/svg" xmlns:xlink="http://www.w3.org/1999/xlink" x="0px" y="0px"
	 viewBox="0 0 85 28.3" style="enable-background:new 0 0 85 28.3;" xml:space="preserve">
<style type="text/css">
	.st0{fill-rule:evenodd;clip-rule:evenodd;}
</style>
<path class="st0" d="M69.5,16.9c6.1-3,9.5-6.4,9-9.2c-1-5.9-19-6.9-37.5-3.6c-8.5,1.5-16.6,3.8-22.1,6c0.3,0,0.5,0,0.5,0
	c2.4,0.1,2.2,1.5,2.2,1.5l0,0.9h-1.9v-0.6c0-0.4-0.5-0.5-0.5-0.5c-0.4,0-0.5,0.3-0.5,0.3c-0.2,0.4,0.2,0.8,0.2,0.8
	c0.2,0.2,1.2,0.7,1.2,0.7c0.3,0.1,0.8,0.4,0.8,0.4c1,0.6,0.9,1.7,0.9,1.7V16c-0.1,1.8-2.6,1.7-2.6,1.7c-2.6,0-2.5-1.7-2.5-1.7v-0.9
	h2v0.6c0,0.5,0.5,0.5,0.5,0.5c0.6,0,0.6-0.5,0.6-0.5c0.1-0.5-0.5-0.8-0.5-0.8c-0.5-0.3-1-0.5-1.5-0.8c-0.5-0.3-0.7-0.6-0.7-0.6
	c-0.3-0.4-0.3-1.1-0.3-1.1V12c0-0.8,0.2-1,0.2-1c0,0,0,0,0,0C10.2,14,6,17.7,6.6,20.6c1.1,6,18,6.8,37.9,3.8
	c9.2-1.4,17.2-4,23.2-6.7c0,0-0.1,0-0.1,0c0,0-2.4,0.2-2.5-1.8v-3.8c0,0-0.3-2.1,2.4-2.1c0,0,1.8-0.1,2.3,1c0,0,0.2,0.3,0.2,1.5H68
	v-0.6c0,0,0-0.5-0.5-0.5c0,0-0.5,0-0.5,0.4v3.9c0,0,0,0.5,0.6,0.5c0,0,0.5,0,0.5-0.6v-1.1h-0.5v-1.1H70v2.2c0,0,0,0.5-0.2,0.7
	C69.8,16.5,69.6,16.8,69.5,16.9z M62.5,17.5h-2.2l-2-4.4h-0.1l0.1,4.4h-1.9v-7.2h2.3l1.9,4.4h0.1l-0.1-4.4h1.9V17.5z M50.8,15.7
	c0,0.6,0.6,0.6,0.6,0.6c0.6,0,0.5-0.6,0.5-0.6v-5.4h2v5.5c0,2-2.5,1.9-2.5,1.9c-2.9,0-2.7-2-2.7-2v-5.4h2.1L50.8,15.7z M44.5,12.5
	v-0.6c0-0.4-0.5-0.5-0.5-0.5c-0.4,0-0.5,0.3-0.5,0.3c-0.2,0.4,0.2,0.8,0.2,0.8c0.2,0.2,1.2,0.7,1.2,0.7c0.3,0.1,0.8,0.4,0.8,0.4
	c1,0.6,0.9,1.7,0.9,1.7V16c-0.1,1.8-2.6,1.7-2.6,1.7c-2.6,0-2.5-1.7-2.5-1.7v-0.9h2v0.6c0,0.5,0.5,0.5,0.5,0.5
	c0.6,0,0.6-0.5,0.6-0.5C44.6,15.3,44,15,44,15c-0.5-0.3-1-0.5-1.5-0.8c-0.5-0.3-0.7-0.6-0.7-0.6c-0.3-0.4-0.3-1.1-0.3-1.1V12
	c0-0.8,0.2-1,0.2-1c0.5-1,2.4-0.9,2.4-0.9c2.4,0.1,2.2,1.5,2.2,1.5l0,0.9H44.5z M34.5,10.3l0.6,3.9h0.1l0.6-3.9h3.1l0.2,7.2h-1.9
	l0-5.4h-0.1l-1,5.4h-2l-1-5.4h-0.1l0,5.4h-1.9l0.2-7.2H34.5z M27.2,17.5l-0.7-5.6h-0.2l-0.7,5.6h-2l1.2-7.2H28l1.2,7.2H27.2z"/>
</svg>
