<?xml version="1.0" encoding="utf-8"?>
<!-- Generator: Adobe Illustrator 28.3.0, SVG Export Plug-In . SVG Version: 6.00 Build 0)  -->
<svg version="1.1" id="Capa_1" xmlns="http://www.w3.org/2000/svg" xmlns:xlink="http://www.w3.org/1999/xlink" x="0px" y="0px"
	 viewBox="0 0 85 28.3" style="enable-background:new 0 0 85 28.3;" xml:space="preserve">
<style type="text/css">
	.st0{fill-rule:evenodd;clip-rule:evenodd;}
</style>
<path class="st0" d="M13,19.3h-2.8v-8H7V9h9.4v2.4H13V19.3z M17.7,11.7c0.4-2.4,2.6-2.8,4.7-2.8c3.6,0,4.8,0.9,4.8,4.6
	c0,3.8-0.1,5.9-4.7,5.9c-1.8,0-4.1-0.1-4.7-2.3c-0.2-0.7-0.2-1.4-0.2-2.2v-0.8C17.6,13.4,17.6,12.6,17.7,11.7z M20.4,14.8
	c0,1.5,0,2.2,1.8,2.2c1.9,0,2.2-0.5,2.2-2.2c0-0.5,0-1,0-1.5c0-1.4-0.2-2-1.7-2c-2.2,0-2.2,0.2-2.3,2.9L20.4,14.8L20.4,14.8z
	 M35.3,12.2c0-1.1-0.4-1.2-1.4-1.2h-0.3c-0.7,0-1.5,0-1.5,0.9c0,0.6,0.2,0.9,0.9,1c2.4,0.2,5.2-0.3,5.2,3.1c0,0.9,0,2-0.7,2.6
	c-0.9,0.7-2,0.8-3.1,0.8h-0.7c-2.9,0-4.3-0.1-4.3-3.4h2.6c0,0.8,0.2,1.2,1.1,1.2h1.2c0.7,0,1.3-0.1,1.3-1c0-0.9-0.5-0.9-1.3-1
	c-3-0.2-4.8,0.1-4.8-3.4c0-1.8,0.7-2.7,2.6-2.9c0.6,0,1.2-0.1,1.8-0.1c2.4,0,4.2,0,4.2,3c0,0.1,0,0.2,0,0.3L35.3,12.2L35.3,12.2z
	 M49.6,19.3h-2.8v-4.1h-3.6v4.1h-2.8V9h2.8v3.9h3.6V9h2.8V19.3z M55,19.3h-2.8V9H55V19.3z M57.7,9h5.6c1.9,0,3.1,0.5,3.1,2.6
	c0,1.2-0.1,2.2-1.6,2.4v0.1c1.4,0.1,1.8,0.9,1.8,2.2c0,2.3-0.8,3-3.2,3h-5.7V9z M62.3,13.1c0.8,0,1.4,0.1,1.4-0.9c0-0.7-0.2-1-0.9-1
	h-2.3v1.9H62.3z M62.3,17.1c0.9,0,1.5,0,1.5-1c0-1-0.5-1-1.3-1h-2v2H62.3z M75.2,19.3H78L74.8,9h-4.2l-3.1,10.4h2.9l0.6-2.1h3.6
	L75.2,19.3z M71.6,15.3l1.2-4.2l1.2,4.2H71.6z"/>
</svg>
